# xmcd
#
# Track frame offsets:
#	150
#	14619
#	34759
#	58069
#	91719
#	111124
#	130794
#	153644
#	185708
#	212629
#	238863
#	252773
#	279187
#
# Disc length: 4043 seconds
#
# Revision: 0
# Processed by: cddbd v1.5.2PL0 Copyright (c) Steve Scherf et al.
# Submitted via: EasyCDDAExtractor 16.1.0.1
#
DISCID=b10fc90d
DTITLE=Чернила для пятого класса - Люби меня
DYEAR=1997
DGENRE=Pop
TTITLE0=Забудь мое имя
TTITLE1=Люби меня
TTITLE2=Не обижайся
TTITLE3=Злая снежная пыль
TTITLE4=Падла
TTITLE5=Я тебе объявляю войну
TTITLE6=Золотой укол
TTITLE7=Старая церковь
TTITLE8=Твоя последняя зима
TTITLE9=Night
TTITLE10=Это зима
TTITLE11=Прости
TTITLE12=Еще полгода
EXTD=
EXTT0=
EXTT1=
EXTT2=
EXTT3=
EXTT4=
EXTT5=
EXTT6=
EXTT7=
EXTT8=
EXTT9=
EXTT10=
EXTT11=
EXTT12=
PLAYORDER=
